<svg xmlns="http://www.w3.org/2000/svg" viewBox="0 0 100 100">
    <g><!--g> transform="translate(50, 50) rotate(0) scale(1)"  transform="translate(-50, -50)"</g-->
        <g>
            <circle cx="50%" cy="50%" r="50%"/>
            <rect x="20%" y="20%" width="60%" height="60%" rx="5%" fill="#F0F0F0"/>
            <g position="absolute" transform="translate(25, 25) scale(10)" width="60%" height="60%">
                <rect x="1" y="0" width="1" height="1" fill="#616161"></rect>
                <rect x="2" y="0" width="1" height="1" fill="#616161"></rect>
                <rect x="3" y="0" width="1" height="1" fill="#616161"></rect>
                <rect x="0" y="1" width="1" height="1" fill="#616161"></rect>
                <rect x="2" y="1" width="1" height="1" fill="#616161"></rect>
                <rect x="4" y="1" width="1" height="1" fill="#616161"></rect>
                <rect x="0" y="2" width="1" height="1" fill="#616161"></rect>
                <rect x="1" y="2" width="1" height="1" fill="#616161"></rect>
                <rect x="2" y="2" width="1" height="1" fill="#616161"></rect>
                <rect x="3" y="2" width="1" height="1" fill="#616161"></rect>
                <rect x="4" y="2" width="1" height="1" fill="#616161"></rect>
                <rect x="0" y="3" width="1" height="1" fill="#616161"></rect>
                <rect x="1" y="3" width="1" height="1" fill="#616161"></rect>
                <rect x="2" y="3" width="1" height="1" fill="#616161"></rect>
                <rect x="3" y="3" width="1" height="1" fill="#616161"></rect>
                <rect x="4" y="3" width="1" height="1" fill="#616161"></rect>
                <rect x="0" y="4" width="1" height="1" fill="#616161"></rect>
                <rect x="2" y="4" width="1" height="1" fill="#616161"></rect>
                <rect x="4" y="4" width="1" height="1" fill="#616161"></rect>
            </g>
        </g>
    </g>
</svg>